<svg width="40" height="40" viewBox="0 0 40 40" fill="none" xmlns="http://www.w3.org/2000/svg">
<path d="M20.3467 1C10.5971 1 2.69349 7.56189 2.69349 15.6564C2.69349 17.5996 3.14899 19.4545 3.97619 21.1515C6.49246 25.4607 9.61463 34.8547 2.53541 38.7271C2.43639 38.7813 2.4733 38.945 2.58532 38.9313C13.1062 37.6365 33.9354 31.9583 37.5801 18.8485C37.855 17.8209 38 16.7527 38 15.6564C38 7.56189 30.0964 1 20.3467 1Z" fill="#FFB800" stroke="black" stroke-width="2"/>
<rect x="12.4023" y="10.2122" width="16.6437" height="2.30303" rx="1.15152" fill="black"/>
<rect x="12.4023" y="14.8182" width="16.6437" height="2.30303" rx="1.15152" fill="black"/>
<rect x="12.4023" y="19.4243" width="16.6437" height="2.30303" rx="1.15152" fill="black"/>
</svg>
