<svg width="54" height="54" viewBox="0 0 54 54" fill="none" xmlns="http://www.w3.org/2000/svg">
<g clip-path="url(#clip0_14:7)">
<path d="M9.00001 42C17.2843 50.2843 30.7157 50.2843 39 42L24 27L39 12C30.7157 3.71574 17.2843 3.71574 9.00001 12C0.715736 20.2843 0.715736 33.7157 9.00001 42Z" fill="#FFB800"/>
<path fill-rule="evenodd" clip-rule="evenodd" d="M10.0607 13.0607C2.36218 20.7592 2.36218 33.2409 10.0607 40.9394C17.4023 48.281 29.094 48.6213 36.8389 41.9603L22.9393 28.0607C22.3536 27.4749 22.3536 26.5251 22.9393 25.9394L36.8389 12.0398C29.094 5.37873 17.4023 5.71903 10.0607 13.0607ZM7.93934 43.0607C-0.930713 34.1906 -0.930713 19.8094 7.93934 10.9394C16.8094 2.06929 31.1906 2.06929 40.0607 10.9394C40.6465 11.5251 40.6465 12.4749 40.0607 13.0607L26.1213 27L40.0607 40.9394C40.6465 41.5251 40.6465 42.4749 40.0607 43.0607C31.1906 51.9307 16.8094 51.9307 7.93934 43.0607Z" fill="black"/>
<path d="M26.0742 10.5008C27.2718 11.6984 27.2718 13.6401 26.0742 14.8377C24.8766 16.0353 22.9348 16.0353 21.7372 14.8377C20.5396 13.6401 20.5396 11.6984 21.7372 10.5008C22.9348 9.30319 24.8766 9.30319 26.0742 10.5008Z" fill="black"/>
<path fill-rule="evenodd" clip-rule="evenodd" d="M22.0908 10.8544C21.0884 11.8567 21.0884 13.4818 22.0908 14.4842C23.0931 15.4865 24.7183 15.4865 25.7206 14.4842C26.723 13.4818 26.723 11.8567 25.7206 10.8544C24.7183 9.85201 23.0931 9.85201 22.0908 10.8544ZM21.3837 15.1913C19.9908 13.7984 19.9908 11.5401 21.3837 10.1472C22.7766 8.75438 25.0348 8.75438 26.4277 10.1472C27.8206 11.5401 27.8206 13.7984 26.4277 15.1913C25.0348 16.5841 22.7766 16.5841 21.3837 15.1913Z" fill="black"/>
<path d="M16.0804 19.8346C17.278 21.0322 17.278 22.9739 16.0804 24.1715C14.8828 25.3691 12.9411 25.3691 11.7435 24.1715C10.5459 22.9739 10.5459 21.0322 11.7435 19.8346C12.9411 18.637 14.8828 18.637 16.0804 19.8346Z" fill="black"/>
<path fill-rule="evenodd" clip-rule="evenodd" d="M12.097 20.1882C11.0947 21.1905 11.0947 22.8156 12.097 23.818C13.0994 24.8203 14.7245 24.8203 15.7268 23.818C16.7292 22.8156 16.7292 21.1905 15.7268 20.1882C14.7245 19.1858 13.0994 19.1858 12.097 20.1882ZM11.3899 24.5251C9.99705 23.1322 9.99705 20.8739 11.3899 19.4811C12.7828 18.0882 15.0411 18.0882 16.4339 19.4811C17.8268 20.8739 17.8268 23.1322 16.4339 24.5251C15.0411 25.918 12.7828 25.918 11.3899 24.5251Z" fill="black"/>
<path fill-rule="evenodd" clip-rule="evenodd" d="M38.6147 21.5294C37.8336 20.7483 37.8336 19.482 38.6147 18.701L43.6093 13.7064C44.3903 12.9253 45.6567 12.9253 46.4377 13.7064C47.2188 14.4874 47.2188 15.7537 46.4377 16.5348L41.4431 21.5294C40.662 22.3104 39.3957 22.3104 38.6147 21.5294Z" fill="#FFB800" stroke="black" stroke-width="2" stroke-linecap="round"/>
<path fill-rule="evenodd" clip-rule="evenodd" d="M38.9906 31.6186C39.7717 30.8375 41.038 30.8375 41.8191 31.6186L46.8137 36.6132C47.5947 37.3943 47.5947 38.6606 46.8137 39.4416C46.0326 40.2227 44.7663 40.2227 43.9853 39.4416L38.9906 34.447C38.2096 33.666 38.2096 32.3996 38.9906 31.6186Z" fill="#FFB800" stroke="black" stroke-width="2" stroke-linecap="round"/>
<path fill-rule="evenodd" clip-rule="evenodd" d="M40.9706 26.7902C40.9706 25.6856 41.866 24.7902 42.9706 24.7902H50.034C51.1386 24.7902 52.034 25.6856 52.034 26.7902C52.034 27.8947 51.1386 28.7902 50.034 28.7902H42.9706C41.866 28.7902 40.9706 27.8947 40.9706 26.7902Z" fill="#FFB800" stroke="black" stroke-width="2" stroke-linecap="round"/>
</g>
<defs>
<clipPath id="clip0_14:7">
<rect width="54" height="54" fill="white"/>
</clipPath>
</defs>
</svg>
