<svg width="125" height="40" viewBox="0 0 125 40" fill="none" xmlns="http://www.w3.org/2000/svg">
<path d="M11.792 18.468C12.296 17.532 13.016 16.8 13.952 16.272C14.912 15.72 16.052 15.444 17.372 15.444C18.956 15.444 20.384 15.864 21.656 16.704C22.928 17.52 23.924 18.72 24.644 20.304C25.388 21.864 25.76 23.712 25.76 25.848C25.76 27.984 25.388 29.844 24.644 31.428C23.924 32.988 22.928 34.188 21.656 35.028C20.384 35.844 18.956 36.252 17.372 36.252C16.052 36.252 14.912 35.988 13.952 35.46C13.016 34.908 12.296 34.164 11.792 33.228V36H3.8V9.36001H11.792V18.468ZM17.66 25.848C17.66 24.768 17.384 23.928 16.832 23.328C16.28 22.728 15.572 22.428 14.708 22.428C13.844 22.428 13.136 22.728 12.584 23.328C12.032 23.928 11.756 24.768 11.756 25.848C11.756 26.928 12.032 27.768 12.584 28.368C13.136 28.968 13.844 29.268 14.708 29.268C15.572 29.268 16.28 28.968 16.832 28.368C17.384 27.768 17.66 26.928 17.66 25.848Z" fill="#FFB800"/>
<path d="M36.2608 9.36001V36H28.2688V9.36001H36.2608Z" fill="#FFB800"/>
<path d="M38.7903 25.848C38.7903 23.712 39.1503 21.864 39.8703 20.304C40.6143 18.72 41.6223 17.52 42.8943 16.704C44.1663 15.864 45.5943 15.444 47.1783 15.444C48.4983 15.444 49.6383 15.72 50.5983 16.272C51.5583 16.8 52.2903 17.532 52.7943 18.468V15.696H60.7503V36H52.7943V33.228C52.2903 34.164 51.5583 34.908 50.5983 35.46C49.6383 35.988 48.4983 36.252 47.1783 36.252C45.5943 36.252 44.1663 35.844 42.8943 35.028C41.6223 34.188 40.6143 32.988 39.8703 31.428C39.1503 29.844 38.7903 27.984 38.7903 25.848ZM52.7943 25.848C52.7943 24.768 52.5183 23.928 51.9663 23.328C51.4143 22.728 50.7063 22.428 49.8423 22.428C48.9783 22.428 48.2703 22.728 47.7183 23.328C47.1663 23.928 46.8903 24.768 46.8903 25.848C46.8903 26.928 47.1663 27.768 47.7183 28.368C48.2703 28.968 48.9783 29.268 49.8423 29.268C50.7063 29.268 51.4143 28.968 51.9663 28.368C52.5183 27.768 52.7943 26.928 52.7943 25.848Z" fill="#FFB800"/>
<path d="M72.3311 18.468C72.8351 17.532 73.5551 16.8 74.4911 16.272C75.4511 15.72 76.5911 15.444 77.9111 15.444C79.4951 15.444 80.9231 15.864 82.1951 16.704C83.4671 17.52 84.4631 18.72 85.1831 20.304C85.9271 21.864 86.2991 23.712 86.2991 25.848C86.2991 27.984 85.9271 29.844 85.1831 31.428C84.4631 32.988 83.4671 34.188 82.1951 35.028C80.9231 35.844 79.4951 36.252 77.9111 36.252C76.5911 36.252 75.4511 35.988 74.4911 35.46C73.5551 34.908 72.8351 34.164 72.3311 33.228V36H64.3391V9.36001H72.3311V18.468ZM78.1991 25.848C78.1991 24.768 77.9231 23.928 77.3711 23.328C76.8191 22.728 76.1111 22.428 75.2471 22.428C74.3831 22.428 73.6751 22.728 73.1231 23.328C72.5711 23.928 72.2951 24.768 72.2951 25.848C72.2951 26.928 72.5711 27.768 73.1231 28.368C73.6751 28.968 74.3831 29.268 75.2471 29.268C76.1111 29.268 76.8191 28.968 77.3711 28.368C77.9231 27.768 78.1991 26.928 78.1991 25.848Z" fill="#FFB800"/>
<path d="M96.7998 9.36001V36H88.8078V9.36001H96.7998Z" fill="#FFB800"/>
<path d="M99.3294 25.848C99.3294 23.712 99.6894 21.864 100.409 20.304C101.153 18.72 102.161 17.52 103.433 16.704C104.705 15.864 106.133 15.444 107.717 15.444C109.037 15.444 110.177 15.72 111.137 16.272C112.097 16.8 112.829 17.532 113.333 18.468V15.696H121.289V36H113.333V33.228C112.829 34.164 112.097 34.908 111.137 35.46C110.177 35.988 109.037 36.252 107.717 36.252C106.133 36.252 104.705 35.844 103.433 35.028C102.161 34.188 101.153 32.988 100.409 31.428C99.6894 29.844 99.3294 27.984 99.3294 25.848ZM113.333 25.848C113.333 24.768 113.057 23.928 112.505 23.328C111.953 22.728 111.245 22.428 110.381 22.428C109.517 22.428 108.809 22.728 108.257 23.328C107.705 23.928 107.429 24.768 107.429 25.848C107.429 26.928 107.705 27.768 108.257 28.368C108.809 28.968 109.517 29.268 110.381 29.268C111.245 29.268 111.953 28.968 112.505 28.368C113.057 27.768 113.333 26.928 113.333 25.848ZM115.709 10.944L106.385 14.328V9.00001L115.709 5.04001V10.944Z" fill="#FFB800"/>
<path fill-rule="evenodd" clip-rule="evenodd" d="M13.952 35.46C14.2182 35.6064 14.4982 35.7325 14.792 35.8383C15.558 36.1141 16.418 36.252 17.372 36.252C18.956 36.252 20.384 35.844 21.656 35.028C22.928 34.188 23.924 32.988 24.644 31.428C24.8944 30.8949 25.1026 30.3306 25.2688 29.735C25.5963 28.5609 25.76 27.2652 25.76 25.848C25.76 24.4308 25.5963 23.1405 25.2688 21.9768C25.1026 21.3866 24.8944 20.829 24.644 20.304C23.924 18.72 22.928 17.52 21.656 16.704C20.384 15.864 18.956 15.444 17.372 15.444C16.418 15.444 15.558 15.5882 14.792 15.8765C14.4982 15.9871 14.2182 16.119 13.952 16.272C13.016 16.8 12.296 17.532 11.792 18.468V9.36001H3.8V36H11.792V33.228C12.296 34.164 13.016 34.908 13.952 35.46ZM14.792 38.963V39H0.800003V6.36001H14.792V12.7423C15.6249 12.5381 16.4899 12.444 17.372 12.444C19.5129 12.444 21.5144 13.02 23.2927 14.1897C24.0281 14.6635 24.6856 15.2198 25.2688 15.848V6.36001H39.2608V15.8639C39.8515 15.2293 40.5159 14.6676 41.2576 14.1898C43.0359 13.02 45.0374 12.444 47.1783 12.444C48.0732 12.444 48.9503 12.5408 49.7943 12.7512V12.696H61.3391V6.36001H75.3311V12.7423C76.164 12.5381 77.0289 12.444 77.9111 12.444C80.052 12.444 82.0535 13.02 83.8318 14.1898C84.5672 14.6635 85.2247 15.2198 85.8078 15.848V6.36001H99.7998V15.8639C100.391 15.2293 101.055 14.6677 101.796 14.1899C102.308 13.8532 102.839 13.5657 103.385 13.327V7.01478L118.709 0.506523V12.696H124.289V39H110.333V38.9544C109.489 39.1586 108.612 39.252 107.717 39.252C105.588 39.252 103.593 38.6945 101.814 37.5531L101.797 37.5424L101.78 37.5314C101.047 37.0471 100.388 36.4839 99.7998 35.8507V39H85.8078V35.8666C85.2276 36.4935 84.5752 37.0513 83.8482 37.5314L83.8317 37.5424L83.8149 37.5531C82.0357 38.6945 80.0403 39.252 77.9111 39.252C77.0294 39.252 76.1645 39.1612 75.3311 38.963V39H49.7943V38.9544C48.9498 39.1586 48.0727 39.252 47.1783 39.252C45.0491 39.252 43.0537 38.6945 41.2745 37.5531L41.2577 37.5424L41.2411 37.5314C40.5078 37.0471 39.8486 36.4839 39.2608 35.8507V39H25.2688V35.8666C24.6885 36.4935 24.0362 37.0513 23.3092 37.5314L23.2926 37.5424L23.2759 37.5531C21.4966 38.6945 19.5012 39.252 17.372 39.252C16.4903 39.252 15.6254 39.1612 14.792 38.963ZM28.2688 36H36.2608V9.36001H28.2688V36ZM39.2608 29.7166C39.4223 30.319 39.6255 30.8894 39.8703 31.428C40.6143 32.988 41.6223 34.188 42.8943 35.028C44.1663 35.844 45.5943 36.252 47.1783 36.252C48.1473 36.252 49.0193 36.1097 49.7943 35.8252C50.075 35.7221 50.343 35.6004 50.5983 35.46C51.5583 34.908 52.2903 34.164 52.7943 33.228V36H60.7503V15.696H52.7943V18.468C52.2903 17.532 51.5583 16.8 50.5983 16.272C50.343 16.1252 50.075 15.998 49.7943 15.8902C49.0193 15.5927 48.1473 15.444 47.1783 15.444C45.5943 15.444 44.1663 15.864 42.8943 16.704C41.6223 17.52 40.6143 18.72 39.8703 20.304C39.6255 20.8344 39.4223 21.3981 39.2608 21.9951C38.9471 23.154 38.7903 24.4383 38.7903 25.848C38.7903 27.2578 38.9471 28.5473 39.2608 29.7166ZM72.3311 36V33.228C72.8351 34.164 73.5551 34.908 74.4911 35.46C74.7572 35.6064 75.0372 35.7325 75.3311 35.8383C76.097 36.1141 76.957 36.252 77.9111 36.252C79.4951 36.252 80.9231 35.844 82.1951 35.028C83.4671 34.188 84.4631 32.988 85.1831 31.428C85.4334 30.8949 85.6417 30.3306 85.8078 29.735C86.1353 28.5608 86.2991 27.2652 86.2991 25.848C86.2991 24.4309 86.1353 23.1405 85.8078 21.9768C85.6417 21.3866 85.4334 20.829 85.1831 20.304C84.4631 18.72 83.4671 17.52 82.1951 16.704C80.9231 15.864 79.4951 15.444 77.9111 15.444C76.957 15.444 76.097 15.5882 75.3311 15.8765C75.0372 15.9871 74.7572 16.119 74.4911 16.272C73.5551 16.8 72.8351 17.532 72.3311 18.468V9.36001H64.3391V36H72.3311ZM88.8078 36H96.7998V9.36001H88.8078V36ZM99.7998 29.7166C99.9614 30.319 100.165 30.8894 100.409 31.428C101.153 32.988 102.161 34.188 103.433 35.028C104.705 35.844 106.133 36.252 107.717 36.252C108.686 36.252 109.558 36.1097 110.333 35.8252C110.614 35.7221 110.882 35.6004 111.137 35.46C112.097 34.908 112.829 34.164 113.333 33.228V36H121.289V15.696H113.333V18.468C112.829 17.532 112.097 16.8 111.137 16.272C110.96 16.1701 110.777 16.0776 110.587 15.9945C110.504 15.9579 110.419 15.9231 110.333 15.8902C109.558 15.5927 108.686 15.444 107.717 15.444C107.408 15.444 107.105 15.46 106.808 15.492C105.582 15.6239 104.457 16.0279 103.433 16.704C103.417 16.7143 103.401 16.7247 103.385 16.7351C102.136 17.5503 101.144 18.74 100.409 20.304C100.165 20.8344 99.9614 21.3981 99.7998 21.9951C99.4862 23.154 99.3294 24.4383 99.3294 25.848C99.3294 27.2578 99.4862 28.5473 99.7998 29.7166ZM115.709 10.944V5.04001L106.385 9.00001V14.328L115.709 10.944ZM16.832 23.328C17.384 23.928 17.66 24.768 17.66 25.848C17.66 26.928 17.384 27.768 16.832 28.368C16.28 28.968 15.572 29.268 14.708 29.268C13.844 29.268 13.136 28.968 12.584 28.368C12.032 27.768 11.756 26.928 11.756 25.848C11.756 24.768 12.032 23.928 12.584 23.328C13.136 22.728 13.844 22.428 14.708 22.428C15.572 22.428 16.28 22.728 16.832 23.328ZM51.9663 23.328C52.5183 23.928 52.7943 24.768 52.7943 25.848C52.7943 26.928 52.5183 27.768 51.9663 28.368C51.4143 28.968 50.7063 29.268 49.8423 29.268C48.9783 29.268 48.2703 28.968 47.7183 28.368C47.1663 27.768 46.8903 26.928 46.8903 25.848C46.8903 24.768 47.1663 23.928 47.7183 23.328C48.2703 22.728 48.9783 22.428 49.8423 22.428C50.7063 22.428 51.4143 22.728 51.9663 23.328ZM77.3711 23.328C77.9231 23.928 78.1991 24.768 78.1991 25.848C78.1991 26.928 77.9231 27.768 77.3711 28.368C76.8191 28.968 76.1111 29.268 75.2471 29.268C74.3831 29.268 73.6751 28.968 73.1231 28.368C72.5711 27.768 72.2951 26.928 72.2951 25.848C72.2951 24.768 72.5711 23.928 73.1231 23.328C73.6751 22.728 74.3831 22.428 75.2471 22.428C76.1111 22.428 76.8191 22.728 77.3711 23.328ZM112.505 23.328C113.057 23.928 113.333 24.768 113.333 25.848C113.333 26.928 113.057 27.768 112.505 28.368C111.953 28.968 111.245 29.268 110.381 29.268C109.517 29.268 108.809 28.968 108.257 28.368C107.705 27.768 107.429 26.928 107.429 25.848C107.429 24.768 107.705 23.928 108.257 23.328C108.809 22.728 109.517 22.428 110.381 22.428C111.245 22.428 111.953 22.728 112.505 23.328Z" fill="black"/>
</svg>
